PathFileType  4	(X/Y/Z) C:\Users\15086\Documents\NMBL_Research\NordBoard_Files\K_Nord_Zeroed\
DataRate	CameraRate	NumFrames	NumMarkers	Units	OrigDataRate	OrigDataStartFrame	OrigNumFrames
  200.0		  200.0		   5		     52		 mm	  200.0	      1196	   1912
Frame#	Time	C7			R_Shoulder			L_Shoulder			Sternum			R_humerus			R_elbow_med			R_elbow_lat			R_forearm			R_wrist_radius			R_wrist_ulna			L_humerus			L_elbow_med			L_elbow_lat			L_forearm			L_wrist_radius			L_wrist_ulna			r.ASIS			r.PSIS			r_IC			L.ASIS			L.PSIS			l_IC			r_thigh1			r_thigh2			r_thigh3			r_thigh4			r_thigh5			r_knee			r_mknee			r_shank_antsup			r_sh2			r_sh3			r_sh4			r_ankle			r_mankle			r_calc			r_5meta			r_toe			L_thigh1			L_thigh2			L_thigh3			L_thigh4			L_knee			L_mknee			L_shank_antsup			L_sh2			L_sh3			L_ankle			L_mankle			L_calc			L_5meta			L_toe			
		X1	Y1	Z1	X2	Y2	Z2	X3	Y3	Z3	X4	Y4	Z4	X5	Y5	Z5	X6	Y6	Z6	X7	Y7	Z7	X8	Y8	Z8	X9	Y9	Z9	X10	Y10	Z10	X11	Y11	Z11	X12	Y12	Z12	X13	Y13	Z13	X14	Y14	Z14	X15	Y15	Z15	X16	Y16	Z16	X17	Y17	Z17	X18	Y18	Z18	X19	Y19	Z19	X20	Y20	Z20	X21	Y21	Z21	X22	Y22	Z22	X23	Y23	Z23	X24	Y24	Z24	X25	Y25	Z25	X26	Y26	Z26	X27	Y27	Z27	X28	Y28	Z28	X29	Y29	Z29	X30	Y30	Z30	X31	Y31	Z31	X32	Y32	Z32	X33	Y33	Z33	X34	Y34	Z34	X35	Y35	Z35	X36	Y36	Z36	X37	Y37	Z37	X38	Y38	Z38	X39	Y39	Z39	X40	Y40	Z40	X41	Y41	Z41	X42	Y42	Z42	X43	Y43	Z43	X44	Y44	Z44	X45	Y45	Z45	X46	Y46	Z46	X47	Y47	Z47	X48	Y48	Z48	X49	Y49	Z49	X50	Y50	Z50	X51	Y51	Z51	X52	Y52	Z52	

1196	5.97500	1221.265	1202.900	-678.286	1340.956	1193.710	-722.211	1086.828	1202.547	-703.943	1206.704	1109.550	-781.140	1498.026	1169.644	-639.144	1628.406	1091.312	-646.302	1607.991	1150.903	-588.632	1614.730	1231.519	-684.652	1577.275	1258.184	-807.994	1633.858	1290.030	-780.685	947.682	1173.950	-589.294	793.073	1105.526	-594.737	821.716	1177.870	-548.879	835.265	1241.065	-629.903	834.526	1291.419	-744.134	906.842	1271.023	-739.610	1337.962	680.635	-577.856	1299.433	844.919	-474.170	1379.736	795.932	-561.524	1108.511	676.475	-550.654	1186.550	848.117	-461.144	1075.758	784.992	-554.168	1362.588	469.691	-486.147	1354.932	365.271	-433.903	1392.423	352.287	-394.218	1419.141	507.800	-402.267	1407.963	402.319	-352.182	1392.777	304.548	-316.341	1269.864	307.851	-302.198	1417.156	310.866	-208.463	1424.721	322.861	-86.895	1422.733	388.359	-213.385	1414.583	403.225	-97.105	1423.149	368.215	71.056	1342.471	352.611	72.005	1359.873	442.171	76.561	1429.797	306.182	190.529	1388.771	257.089	179.651	1037.284	518.224	-427.594	1030.881	394.209	-363.802	1046.938	575.454	-323.369	1058.739	449.781	-264.267	1035.177	338.361	-267.209	1161.685	309.892	-268.143	1026.773	324.300	-166.586	1040.310	412.239	-175.691	1047.211	412.898	-54.842	1081.099	380.544	109.572	1155.775	351.675	102.002	1124.793	438.271	113.848	1103.882	300.792	243.354	1140.023	256.467	216.959
1197	5.98000	1221.570	1203.068	-678.646	1340.887	1193.618	-722.458	1086.785	1202.431	-704.149	1206.641	1109.405	-781.311	1497.947	1169.493	-639.362	1628.303	1091.145	-646.472	1607.913	1150.762	-588.821	1614.653	1231.351	-684.885	1577.244	1258.002	-808.206	1633.876	1289.777	-780.916	947.657	1173.871	-589.482	793.001	1105.502	-594.900	821.648	1177.852	-549.060	835.243	1241.044	-630.120	834.501	1291.365	-744.328	906.779	1270.938	-739.816	1337.890	680.554	-577.965	1299.386	844.821	-474.377	1379.670	795.875	-561.678	1108.467	676.398	-550.771	1186.490	848.046	-461.295	1075.697	784.889	-554.344	1362.572	469.616	-486.170	1354.755	364.869	-434.292	1392.425	352.273	-394.234	1419.114	507.779	-402.361	1408.529	402.546	-352.182	1392.773	304.570	-316.358	1269.830	307.861	-302.203	1417.160	310.888	-208.475	1424.736	322.879	-86.882	1422.743	388.354	-213.383	1414.605	403.250	-97.056	1423.136	368.266	71.041	1342.484	352.586	72.005	1359.879	442.194	76.566	1429.797	306.162	190.538	1388.747	257.093	179.641	1037.276	518.148	-427.649	1030.857	394.178	-363.802	1046.893	575.395	-323.470	1058.745	449.781	-264.293	1034.564	338.785	-267.028	1161.653	309.877	-268.141	1026.766	324.278	-166.591	1040.281	412.222	-175.652	1047.517	412.858	-54.386	1081.042	380.572	109.549	1155.727	351.755	102.022	1124.695	438.305	113.857	1103.848	300.760	243.413	1139.968	256.467	217.008
1198	5.98500	1221.110	1202.721	-678.720	1340.786	1193.523	-722.624	1086.937	1203.651	-703.797	1206.557	1109.321	-781.503	1497.884	1169.349	-639.557	1628.124	1091.027	-646.628	1607.792	1150.620	-589.005	1614.582	1231.229	-685.055	1577.227	1257.788	-808.423	1633.863	1289.567	-781.153	947.581	1173.838	-589.663	792.910	1105.512	-595.062	821.596	1177.843	-549.240	835.219	1240.953	-630.339	834.488	1291.310	-744.517	906.746	1270.864	-740.020	1337.865	680.522	-578.108	1299.308	844.789	-474.562	1379.608	795.800	-561.851	1108.425	676.253	-550.853	1186.280	847.849	-461.453	1075.646	784.753	-554.520	1362.557	469.599	-486.279	1354.747	364.766	-434.306	1392.369	352.267	-394.251	1419.094	507.766	-402.401	1407.942	402.354	-352.192	1392.775	304.571	-316.362	1269.842	307.833	-302.215	1417.151	310.882	-208.453	1424.725	322.869	-86.906	1422.727	388.385	-213.367	1414.599	403.205	-97.099	1423.147	368.258	71.044	1342.474	352.592	72.014	1359.880	442.181	76.590	1429.804	306.149	190.485	1388.429	256.873	179.549	1037.251	518.050	-427.772	1030.856	394.120	-363.807	1046.850	575.381	-323.520	1058.702	449.777	-264.318	1034.541	338.752	-267.031	1161.641	309.896	-268.057	1026.760	324.286	-166.562	1040.247	412.239	-175.636	1047.457	412.873	-54.389	1080.942	380.551	109.571	1155.659	351.798	102.028	1124.584	438.322	113.843	1103.742	300.828	243.431	1139.876	256.520	217.071
1199	5.99000	1221.045	1202.591	-678.921	1340.753	1193.311	-722.848	1086.903	1203.530	-704.030	1206.483	1109.229	-781.747	1497.790	1169.184	-639.748	1628.012	1090.843	-646.804	1607.713	1150.455	-589.184	1614.503	1231.037	-685.269	1577.207	1257.602	-808.642	1633.863	1289.348	-781.380	947.519	1173.780	-589.813	792.841	1105.474	-595.236	821.552	1177.810	-549.420	835.166	1240.894	-630.467	834.466	1291.252	-744.699	906.708	1270.809	-740.232	1337.802	680.452	-578.206	1299.250	844.715	-474.715	1379.540	795.756	-561.979	1108.378	676.195	-551.010	1186.219	847.765	-461.601	1075.679	784.453	-554.525	1362.581	469.528	-486.288	1354.668	364.756	-434.345	1392.391	352.247	-394.251	1419.057	507.731	-402.419	1407.932	402.346	-352.236	1392.746	304.570	-316.342	1269.839	307.813	-302.225	1417.137	310.907	-208.449	1424.719	322.900	-86.895	1422.724	388.356	-213.376	1414.562	403.209	-97.040	1422.826	368.010	70.917	1342.470	352.552	72.010	1359.866	442.175	76.589	1429.848	306.154	190.502	1388.751	257.162	179.537	1037.246	517.975	-427.828	1030.859	394.077	-363.826	1046.826	575.325	-323.602	1058.658	449.756	-264.383	1035.160	338.284	-267.198	1161.610	309.866	-268.044	1026.741	324.268	-166.475	1040.216	412.226	-175.639	1047.060	412.905	-54.799	1080.876	380.605	109.586	1155.626	351.754	102.079	1124.491	438.333	113.847	1103.725	300.826	243.523	1139.773	256.572	217.134
1200	5.99500	1221.346	1202.776	-679.253	1340.676	1193.183	-723.037	1086.793	1203.414	-704.266	1206.420	1109.141	-781.939	1497.753	1169.174	-639.980	1628.607	1090.394	-646.897	1607.661	1150.286	-589.341	1614.478	1230.854	-685.453	1577.202	1257.437	-808.807	1633.854	1289.130	-781.570	947.481	1173.686	-590.062	792.740	1105.454	-595.418	821.509	1177.796	-549.569	835.168	1240.834	-630.659	834.455	1291.210	-744.845	906.677	1270.717	-740.422	1337.770	680.415	-578.346	1299.179	844.678	-474.889	1379.488	795.671	-562.159	1108.335	676.070	-551.131	1186.279	847.797	-461.811	1075.631	784.327	-554.689	1362.517	469.512	-486.354	1354.693	364.747	-434.372	1392.346	352.202	-394.278	1419.034	507.740	-402.486	1407.938	402.377	-352.241	1392.764	304.505	-316.350	1269.843	307.803	-302.223	1417.122	310.910	-208.451	1424.730	322.922	-86.882	1422.725	388.408	-213.370	1414.540	403.191	-97.074	1423.160	368.202	71.049	1342.476	352.581	72.000	1359.882	442.216	76.586	1429.900	306.087	190.470	1388.501	256.829	179.559	1037.231	517.848	-427.891	1030.844	394.036	-363.839	1046.769	575.274	-323.656	1058.629	449.743	-264.385	1035.132	338.088	-267.033	1161.618	309.894	-268.029	1026.732	324.267	-166.558	1040.177	412.218	-175.654	1046.963	412.906	-54.819	1080.781	380.574	109.587	1155.540	351.763	102.118	1124.388	438.359	113.830	1103.567	301.021	243.533	1139.719	256.568	217.156
